<mxfile host="app.diagrams.net" modified="2024-01-17T13:45:49.930Z" agent="Mozilla/5.0 (X11; Linux x86_64) AppleWebKit/537.36 (KHTML, like Gecko) Chrome/120.0.0.0 Safari/537.36" version="22.1.21" etag="tsuW1lvtJQaLRoLUSC5G" type="github">
  <diagram name="Страница — 1" id="CG0SbPbreLai7P_MPdH2">
    <mxGraphModel>
      <root>
        <mxCell id="0" />
        <mxCell id="1" parent="0" />
      </root>
    </mxGraphModel>
  </diagram>
</mxfile>
